# xmcd
#
# Track frame offsets:
#	150
#	20050
#	44350
#	61248
#	82051
#	99704
#	114385
#	133574
#	144638
#	162739
#	191567
#	209355
#	225980
#	245740
#	266945
#	284600
#	305085
#
# Disc length: 4327 seconds
#
# Revision: 0
# Processed by: cddbd v1.4PL0 Copyright (c) Steve Scherf et al.
# Submitted via: audiograbber 1.81.03
#
DISCID=0a10e511
DTITLE=Eric Clapton - Best of Eric Clapton
DYEAR=1900
DGENRE=
TTITLE0=I Shot The Sheriff
TTITLE1=My Father's Eyes
TTITLE2=Wonderful Tonight
TTITLE3=Layla
TTITLE4=Lay Down Sally
TTITLE5=Hoochie Coochie Man
TTITLE6=Slow Down Linda
TTITLE7=Hound Dog
TTITLE8=Next Time You See Her
TTITLE9=Old Love
TTITLE10=Befor You Accuse Me (Take A Look At Yourself)
TTITLE11=Cocaine
TTITLE12=Riding With The King (With B. B. King)
TTITLE13=Blue Eyes Blue
TTITLE14=Change The World
TTITLE15=Tears In Heaven
TTITLE16=(I) Get Lost
EXTD=
EXTT0=
EXTT1=
EXTT2=
EXTT3=
EXTT4=
EXTT5=
EXTT6=
EXTT7=
EXTT8=
EXTT9=
EXTT10=
EXTT11=
EXTT12=
EXTT13=
EXTT14=
EXTT15=
EXTT16=
PLAYORDER=
